<svg width="64" height="64" viewBox="0 0 64 64" fill="none" xmlns="http://www.w3.org/2000/svg">
<path d="M46.848 0H48.672C53.218 0.26 57.662 2.48 60.416 6.134C62.22 8.442 63.228 11.306 63.456 14.214V15.294C63.35 20.934 59.742 25.562 56.616 29.948C53.108 34.904 49.868 40.308 48.968 46.414C48.728 47.448 49.016 48.898 47.78 49.364C47.49 49.138 47.15 48.95 46.946 48.634C46.58 45.22 45.746 41.846 44.27 38.728C42.616 35.094 40.316 31.808 37.976 28.598C36.552 26.672 35.21 24.678 34.1 22.55C32.356 19.364 31.706 15.6 32.42 12.026C33.004 9.226 34.48 6.586 36.526 4.566C39.28 1.872 43.006 0.24 46.848 0ZM46.494 9.932C44.338 10.412 42.528 12.32 42.346 14.532C42.2577 15.5702 42.4821 16.6112 42.9904 17.5208C43.4986 18.4304 44.2675 19.1671 45.198 19.636C46.2161 20.1551 47.3666 20.3561 48.5004 20.2131C49.6341 20.0701 50.6987 19.5896 51.556 18.834C52.3352 18.1248 52.8795 17.1948 53.1165 16.1681C53.3534 15.1415 53.2716 14.067 52.882 13.088C51.908 10.652 48.9872 9.31589 46.4592 9.93989" fill="#9B8C00"/>
<path d="M46.494 9.932C49.02 9.286 51.91 10.672 52.882 13.132C53.682 15.078 53.13 17.484 51.556 18.878C50.6987 19.6336 49.6341 20.1141 48.5004 20.2571C47.3666 20.4001 46.2161 20.199 45.198 19.68C43.338 18.76 42.118 16.654 42.346 14.576C42.546 12.344 44.338 10.392 46.494 9.932Z" fill="#725F00"/>
</svg>
